<?xml version="1.0" encoding="utf-8"?><svg xmlns="http://www.w3.org/2000/svg" xmlns:xlink="http://www.w3.org/1999/xlink"><symbol viewBox="0 0 187.383 187.383" id="email" xmlns="http://www.w3.org/2000/svg"><path d="M185.439 57.992c-.774-8.584 1.847-21.749-.915-29.566-.238-.673-.819-1.223-1.514-1.316-.004-.006-.005-.013-.009-.019-4.027-5.607-15.182-3.842-20.966-3.96-18.658-.381-37.328-.28-55.989-.28-33.891.002-68.694-1.656-102.487 1.42-1.313.12-1.902 1.296-1.6 2.271-.946.565-1.572 1.644-1.233 3.143 4.997 22.128 5.212 45.077 4.736 67.658-.23 10.868-1.057 21.718-2.172 32.528-.885 8.579-4.695 18.537-2.739 27.061.464 2.023 3.465 3.104 4.998 1.57 12.18 8.393 38.403 5.012 51.832 5.479 16.529.575 32.902 1.101 49.439.979 17.874-.133 35.762-.398 53.613-1.353 5.741-.307 19.281.98 22.239-5.886.514-1.189.283-2.519-.359-3.503 1.52-4.409.918-9.561.849-14.196-.238-15.952 3.609-31.554 4.147-47.52.389-11.538-.833-23.024-1.87-34.51zM36.423 31.137c19.548.955 39.132.828 58.698.896 18.92.066 37.842.01 56.761.193 3.59.035 9.599-.424 15.188-.602-7.161 6.984-13.86 17.846-17.642 22.165-12.88 14.713-40.091 50.246-61.972 39.522-17.893-8.767-31.307-30.251-44.719-44.392-5.342-5.632-13.147-14.26-21.671-18.277 5.26.264 10.523.258 15.357.495zm-14.245 9.529c8.307 6.547 15.188 15.044 22.118 22.965 7.578 8.664 15.782 19.925 25.355 28.519-2.619 1.894-4.99 4.302-7.275 6.334-8.156 7.258-15.834 15.076-23.644 22.699-8.243 8.044-17.722 14.282-26.599 21.367 3.061-14.862 1.958-33.655 2.33-45.208.668-20.732.287-43.462-6.186-63.579 3.38 2.897 10.505 4.227 13.901 6.903zm124.968 114.29c-15.618.577-31.256.72-46.884.818-14.334.093-28.553-.502-42.881-1.01-10.314-.365-20.628-.685-30.94-1.108-4.425-.183-9.124-.924-13.641-.784 7.848-3.747 18.076-13.317 22.007-16.369 8.408-6.527 15.79-14.716 23.454-22.077 5.636-5.412 13.359-10.435 18.894-16.366 2.88 1.928 5.88 3.55 9.022 4.735 10.816 4.079 21.13.715 30.408-5.274 10.231 9.97 19.917 20.312 29.112 31.295 6.329 7.562 13.283 19.632 21.663 26.437-7.381.218-16.083-.45-20.214-.297zm27.769-31.137c-.814 5.608-.941 10.605-.812 16.201.052 2.246.064 4.492.04 6.737-.002.803.002 1.43.011 1.982-5.448-9.511-15.941-18.476-22.626-25.755-9.396-10.232-19.456-20.033-30.425-28.611 6.467-4.884 12.34-10.739 17.396-15.77 7.745-7.705 15.206-15.668 22.341-23.938 3.392-3.931 10.645-15.718 15.921-20.449-3.476 11.759.822 34.112 1.267 40.825 1.09 16.479-.739 32.451-3.113 48.778z"/></symbol><symbol viewBox="0 0 26 22" id="github" xmlns="http://www.w3.org/2000/svg"><path d="M25.047 17.422C22.984 21.594 17.313 22 13.25 22 9.125 22 3.109 21.641.969 17.422.172 15.844 0 13.984 0 12.25c0-2.281.625-4.438 2.125-6.188a8.585 8.585 0 0 1-.422-2.656c0-1.172.266-2.343.797-3.406 2.469 0 4.047 1.078 5.922 2.547A20.895 20.895 0 0 1 13.25 2c1.469 0 2.953.156 4.375.5C19.484 1.047 21.063 0 23.5 0a7.629 7.629 0 0 1 .797 3.406c0 .891-.141 1.781-.422 2.625C25.375 7.797 26 9.969 26 12.25c0 1.734-.172 3.578-.953 5.172zM18.5 10.5c-1.031 0-2.016.188-3.047.328-.812.125-1.625.172-2.453.172s-1.641-.047-2.453-.172c-1.016-.14-2.016-.328-3.047-.328-2.547 0-4 2.109-4 4.5 0 4.781 4.375 5.516 8.188 5.516h2.625c3.813 0 8.188-.734 8.188-5.516-.001-2.391-1.454-4.5-4.001-4.5zM8 18c-1.406 0-2-1.859-2-3s.594-3 2-3 2 1.859 2 3-.594 3-2 3zm10 0c-1.406 0-2-1.859-2-3s.594-3 2-3 2 1.859 2 3-.594 3-2 3z"/></symbol><symbol viewBox="0 0 24 22.938" id="in" xmlns="http://www.w3.org/2000/svg"><path d="M2.875 5.344h-.031C1.109 5.344 0 4.156 0 2.672 0 1.156 1.156 0 2.906 0c1.766 0 2.859 1.156 2.875 2.672.016 1.484-1.109 2.672-2.906 2.672zm2.578 17.594H.297V7.453h5.156v15.485zm18.547 0h-5.141v-8.281c0-2.078-.75-3.5-2.609-3.5-1.422 0-2.266.953-2.641 1.875-.125.344-.172.797-.172 1.266v8.641h-5.14c.063-14.031 0-15.484 0-15.484h5.141v2.25h-.031c.672-1.063 1.891-2.609 4.672-2.609 3.391 0 5.922 2.219 5.922 6.969v8.873z"/></symbol><symbol viewBox="0 0 456.449 456.449" id="location" xmlns="http://www.w3.org/2000/svg"><path d="M231.014 0c-6.553 0-13.385.218-19.994.635h-8.062c-2.184 0-4.326.467-6.378 1.404-50.528 1.008-93.724 28.579-112.916 72.158-18.829 42.747-9.796 91.305-1.366 124.111 19.377 75.426 63.452 156.46 122.164 225.632-7.582-.193-15.148-.391-22.635-.594-12.37-.33-24.74-.655-37.115-.95h-.574c-11.101 0-17.004 7.607-17.09 15.122-.094 7.79 5.86 15.813 17.417 16.077 12.362.29 24.717.62 37.077.95 35.289.934 71.779 1.904 107.717 1.904 10.328 0 20.657-.071 30.995-.254 11.548-.203 17.524-8.187 17.448-15.955-.065-7.576-5.992-15.244-17.626-15.244h-.01c-10.268.183-20.545.254-30.813.254-8.333 0-16.696-.062-25.074-.152 62.672-66.75 107.449-162.638 118.139-254.605 4.007-34.408 2.26-83.776-28.776-123.549C329.247 15.797 288.02 0 231.014 0zm118.002 180.507c-12.415 82.999-56.146 170.411-114.563 229.418-46.261-53.116-84.277-116.937-110.093-184.89-17.237-45.377-23.135-83.22-18.024-115.709 7-44.448 45.499-75.497 93.63-75.497.952 0 1.901.01 3.295.043 2.257 0 4.4-.454 6.38-1.353h5.408c1.023 0 2.069-.114 3.171-.348 4.281-.183 8.586-.281 12.89-.281 45.768 0 78.201 12.037 99.168 36.81 19.993 23.622 26.299 61.238 18.738 111.807z"/><path d="M228.554 50.307c-.988 0-1.973.01-2.623.043-47.131-1.889-81.471 28.119-84.548 73.265-3.532 51.691 43.158 90.035 88.981 93.409 2.021.152 4.062.224 6.094.224h.005c45.209 0 88.215-35.03 93.917-76.5 2.858-20.804-2.777-40.001-16.306-55.518-18.494-21.215-52.064-34.923-85.52-34.923zm67.834 87.494c-3.818 27.767-36.886 44.958-65.612 44.958-33.405-.145-53.301-28.262-53.243-55.363.041-20.69 11.949-42.8 45.237-42.8.629 0 1.259.005 2.003.025.175.01.353.015.521.01a104.82 104.82 0 0 1 2.818-.041c18.533 0 45.238 5.802 59.501 22.161 7.475 8.569 10.42 19.022 8.775 31.05z"/></symbol><symbol viewBox="0 0 190.29 190.29" id="phone" xmlns="http://www.w3.org/2000/svg"><path d="M160.12 171.042a1.618 1.618 0 0 0-.248-1.059c-1.588-15.177-12.398-34.472-28.406-36.415-14.981-1.817-32.91 11.182-43.51-8.246-9.923-18.188-26.101-33.756-28.199-55.413-1.073-11.078 15.355-14.742 20.182-22.758 2.815-4.674.847-11.707-.26-16.557C77.417 20.687 68.537.304 56.338.001c-.645-.016-1.125.223-1.444.589C32.641.728 19.7 20.493 14.138 40.639c-8.942 32.391 14.743 68.329 32.42 93.113 17.874 25.06 37.251 52.952 70.274 56.125 13.4 1.288 36.456.31 42.073-14.012.566-.017 1.156-.386 1.18-1.049a33.42 33.42 0 0 0-.062-3.27c.022-.175.078-.326.097-.504zm-58.883 11.477c-23.737-7.217-42.266-38.001-55.727-56.88C21.111 91.417-5.888 16.204 54.526 2.56c.219.742.815 1.368 1.81 1.405 9.1.339 15.349 16.469 18.171 23.316 6.365 15.443-3.835 19.917-13.204 29.074-11.717 11.451-2.527 29.834 4.34 41.372 5.149 8.652 11.812 16.228 16.724 25.066 3.12 5.614 5.949 14.353 11.665 18.129 5.672 3.747 9.397 3.054 15.954 1.148 14.24-4.137 16.049-12.927 34.301 3.382 6.958 6.217 10.54 15.461 12.582 24.478-.27.288-.483.642-.538 1.113-2.533 21.617-42.118 15.421-55.094 11.476zm41.364-117.101c-4.855-17.424-20.639-24.707-37.552-22.421-.33.045-.54.227-.692.445-.249-.019-.499-.068-.748-.07-.631-.006-1.037.415-1.258.958l-.244.599c-.032.081.002.217.072.271 3.157 2.479 7.129 3.521 10.392 6.482 4.697 4.264 8.75 9.498 12.199 14.79 5.532 8.49 7.169 18.464 8.036 28.343.269 3.055-.439 6.277.176 9.293.007.078.013.155.029.229.007.03.005.062.012.093.038.16.122.268.188.398.017.026.022.061.041.087.346.605.948.857 1.579.819.397.024.758-.116 1.075-.341.034-.008.062-.001.096-.011 14.495-4.244 9.504-29.54 6.599-39.964zm-5.326 34.663c1.057-11.413-3.317-24.883-8.306-34.178-3.339-6.222-10.382-15.986-18.084-20.32 13.198.802 23.11 7.233 27.971 20.867 3.377 9.471 5.375 25.202-1.581 33.631z"/><path d="M166.578 36.151C157.523 19.899 121.5-4.282 104.809 12.72c-1.492 1.52.3 3.69 1.956 3.123.068.051.117.114.202.153 44.757 20.886 63.449 54.317 50.812 103.186-.521 2.021 1.903 3.322 3.39 1.973 23.641-21.453 19.704-59.344 5.409-85.004zm-3.378 78.26c1.459-5.653 2.186-11.423 2.88-17.201 4.823-40.142-21.024-69.812-56.808-83.22 12.035-8.534 31.162 3.878 40.833 10.206 12.529 8.198 18.311 22.543 21.857 36.472 3.294 12.933 2.513 26.642-1.219 39.33.39-1.324-9.234 20.961-7.543 14.413z"/></symbol><symbol viewBox="0 0 30.011 17.123" id="vk" xmlns="http://www.w3.org/2000/svg"><path d="M27.625 5.832c-3.031 4.031-3.359 3.656-.859 5.984 2.406 2.234 2.906 3.313 2.984 3.453 0 0 1 1.75-1.109 1.766l-4 .063c-.859.172-2-.609-2-.609-1.5-1.031-2.906-3.703-4-3.359 0 0-1.125.359-1.094 2.766.016.516-.234.797-.234.797s-.281.297-.828.344h-1.797c-3.953.25-7.438-3.391-7.438-3.391S3.437 9.707.093 1.848c-.219-.516.016-.766.016-.766S.343.785 1 .785L5.281.754c.406.063.688.281.688.281s.25.172.375.5c.703 1.75 1.609 3.344 1.609 3.344 1.563 3.219 2.625 3.766 3.234 3.438 0 0 .797-.484.625-4.375-.063-1.406-.453-2.047-.453-2.047-.359-.485-1.031-.625-1.328-.672-.234-.031.156-.594.672-.844.766-.375 2.125-.391 3.734-.375 1.266.016 1.625.094 2.109.203 1.484.359.984 1.734.984 5.047 0 1.063-.203 2.547.563 3.031.328.219 1.141.031 3.141-3.375 0 0 .938-1.625 1.672-3.516.125-.344.391-.484.391-.484s.25-.141.594-.094l4.5-.031c1.359-.172 1.578.453 1.578.453.234.641-.501 2.141-2.344 4.594z"/></symbol></svg>